<svg xmlns="http://www.w3.org/2000/svg" viewBox="0 0 1280 921" preserveAspectRatio="xMidYMid slice">
  <defs>
    <radialGradient id="spaceGlow" cx="46%" cy="38%" r="62%">
      <stop offset="0" stop-color="#1e7ddb"/>
      <stop offset="0.34" stop-color="#0b2a5d"/>
      <stop offset="0.72" stop-color="#050b19"/>
      <stop offset="1" stop-color="#00040b"/>
    </radialGradient>
    <radialGradient id="earth" cx="50%" cy="50%" r="50%">
      <stop offset="0" stop-color="#7bdfff"/>
      <stop offset="0.23" stop-color="#2d86d4"/>
      <stop offset="0.45" stop-color="#124176"/>
      <stop offset="0.68" stop-color="#06152b"/>
      <stop offset="1" stop-color="#00030a"/>
    </radialGradient>
    <radialGradient id="lens" cx="34%" cy="28%" r="76%">
      <stop offset="0" stop-color="#f7fdff" stop-opacity="0.82"/>
      <stop offset="0.25" stop-color="#79dbff" stop-opacity="0.56"/>
      <stop offset="0.52" stop-color="#315dff" stop-opacity="0.22"/>
      <stop offset="0.78" stop-color="#ff4fc3" stop-opacity="0.28"/>
      <stop offset="1" stop-color="#ffffff" stop-opacity="0.08"/>
    </radialGradient>
    <linearGradient id="horizon" x1="0" y1="0" x2="1" y2="1">
      <stop offset="0" stop-color="#7de8ff"/>
      <stop offset="0.45" stop-color="#36a8ff"/>
      <stop offset="1" stop-color="#ffffff"/>
    </linearGradient>
    <filter id="softBlur"><feGaussianBlur stdDeviation="16"/></filter>
    <filter id="starGlow"><feGaussianBlur stdDeviation="1.6" result="blur"/><feMerge><feMergeNode in="blur"/><feMergeNode in="SourceGraphic"/></feMerge></filter>
  </defs>
  <rect width="1280" height="921" fill="url(#spaceGlow)"/>
  <rect width="1280" height="921" fill="#02040b" opacity="0.42"/>
  <g opacity="0.95" filter="url(#starGlow)">
    <circle cx="1115" cy="126" r="4.5" fill="#ffffff"/><circle cx="1167" cy="158" r="1.8" fill="#bde8ff"/><circle cx="1077" cy="234" r="2.2" fill="#ffffff"/><circle cx="1006" cy="83" r="1.4" fill="#e8f7ff"/><circle cx="945" cy="181" r="1.6" fill="#bde8ff"/><circle cx="899" cy="98" r="1.3" fill="#ffffff"/><circle cx="818" cy="134" r="1.9" fill="#e7f6ff"/><circle cx="736" cy="92" r="1.4" fill="#bde8ff"/><circle cx="695" cy="204" r="1.7" fill="#ffffff"/><circle cx="612" cy="121" r="1.2" fill="#d4f1ff"/><circle cx="550" cy="70" r="1.8" fill="#ffffff"/><circle cx="495" cy="146" r="1.2" fill="#d4f1ff"/><circle cx="430" cy="88" r="1.4" fill="#ffffff"/><circle cx="364" cy="166" r="1.2" fill="#bde8ff"/><circle cx="315" cy="104" r="1.5" fill="#ffffff"/><circle cx="258" cy="194" r="1.2" fill="#c9efff"/><circle cx="202" cy="126" r="1.3" fill="#ffffff"/><circle cx="152" cy="217" r="1.1" fill="#bde8ff"/><circle cx="1024" cy="326" r="1.2" fill="#c9efff"/><circle cx="905" cy="303" r="1.5" fill="#ffffff"/><circle cx="802" cy="286" r="1.1" fill="#bde8ff"/><circle cx="705" cy="340" r="1.4" fill="#ffffff"/><circle cx="598" cy="298" r="1.2" fill="#d7f2ff"/><circle cx="463" cy="342" r="1.3" fill="#ffffff"/><circle cx="1118" cy="421" r="1.3" fill="#ffffff"/><circle cx="988" cy="460" r="1.1" fill="#bde8ff"/>
  </g>
  <ellipse cx="250" cy="651" rx="405" ry="405" fill="url(#earth)" opacity="0.95"/>
  <path d="M-88 586C113 472 310 448 523 515" fill="none" stroke="url(#horizon)" stroke-width="22" opacity="0.8" filter="url(#softBlur)"/>
  <path d="M-102 589C115 469 323 445 545 514" fill="none" stroke="#78e4ff" stroke-width="6" opacity="0.95"/>
  <path d="M-4 512C122 559 250 586 397 555" fill="none" stroke="#39a9ff" stroke-width="8" opacity="0.22"/>
  <g transform="translate(608 286) rotate(-23)">
    <ellipse cx="0" cy="0" rx="175" ry="236" fill="url(#lens)" opacity="0.82"/>
    <ellipse cx="0" cy="0" rx="175" ry="236" fill="none" stroke="#8be6ff" stroke-width="5" opacity="0.82"/>
    <ellipse cx="-38" cy="-62" rx="82" ry="126" fill="#ffffff" opacity="0.18"/>
    <path d="M-112-134C-48-203 57-211 120-151" fill="none" stroke="#ffffff" stroke-width="12" stroke-linecap="round" opacity="0.52"/>
    <path d="M-122 119C-45 178 57 174 124 108" fill="none" stroke="#5bd8ff" stroke-width="6" stroke-linecap="round" opacity="0.45"/>
    <path d="M95-33C151-12 165 49 131 92" fill="none" stroke="#e477ff" stroke-width="5" stroke-linecap="round" opacity="0.42"/>
  </g>
  <circle cx="814" cy="213" r="12" fill="#ffffff" opacity="0.9" filter="url(#starGlow)"/>
  <circle cx="814" cy="213" r="36" fill="#56c6ff" opacity="0.16" filter="url(#softBlur)"/>
  <rect x="0" y="0" width="1280" height="921" fill="url(#spaceGlow)" opacity="0.18"/>
  <rect x="0" y="0" width="1280" height="921" fill="#00040b" opacity="0.16"/>
</svg>
